<?xml version="1.0" encoding="UTF-8" standalone="no"?>
<!-- Created with Inkscape (http://www.inkscape.org/) -->

<svg
   xmlns:dc="http://purl.org/dc/elements/1.1/"
   xmlns:cc="http://creativecommons.org/ns#"
   xmlns:rdf="http://www.w3.org/1999/02/22-rdf-syntax-ns#"
   xmlns:svg="http://www.w3.org/2000/svg"
   xmlns="http://www.w3.org/2000/svg"
   xmlns:sodipodi="http://sodipodi.sourceforge.net/DTD/sodipodi-0.dtd"
   xmlns:inkscape="http://www.inkscape.org/namespaces/inkscape"
   width="148.34267mm"
   height="230.68454mm"
   viewBox="0 0 148.34267 230.68454"
   version="1.1"
   id="svg4938"
   inkscape:version="0.92.1 r15371"
   sodipodi:docname="capeñarol.svg">
  <defs
     id="defs4932">
    <inkscape:path-effect
       effect="bspline"
       id="path-effect3812-0"
       is_visible="true"
       weight="33.333333"
       steps="2"
       helper_size="0"
       apply_no_weight="true"
       apply_with_weight="true"
       only_selected="false" />
    <inkscape:path-effect
       effect="bspline"
       id="path-effect3836"
       is_visible="true"
       weight="33.333333"
       steps="2"
       helper_size="0"
       apply_no_weight="true"
       apply_with_weight="true"
       only_selected="false" />
    <inkscape:path-effect
       effect="bspline"
       id="path-effect3842"
       is_visible="true"
       weight="33.333333"
       steps="2"
       helper_size="0"
       apply_no_weight="true"
       apply_with_weight="true"
       only_selected="false" />
    <inkscape:path-effect
       effect="bspline"
       id="path-effect3866"
       is_visible="true"
       weight="33.333333"
       steps="2"
       helper_size="0"
       apply_no_weight="true"
       apply_with_weight="true"
       only_selected="false" />
    <inkscape:path-effect
       effect="bspline"
       id="path-effect3870"
       is_visible="true"
       weight="33.333333"
       steps="2"
       helper_size="0"
       apply_no_weight="true"
       apply_with_weight="true"
       only_selected="false" />
    <inkscape:path-effect
       effect="bspline"
       id="path-effect3874"
       is_visible="true"
       weight="33.333333"
       steps="2"
       helper_size="0"
       apply_no_weight="true"
       apply_with_weight="true"
       only_selected="false" />
    <inkscape:path-effect
       effect="bspline"
       id="path-effect3878"
       is_visible="true"
       weight="33.333333"
       steps="2"
       helper_size="0"
       apply_no_weight="true"
       apply_with_weight="true"
       only_selected="false" />
    <inkscape:path-effect
       effect="bspline"
       id="path-effect3882"
       is_visible="true"
       weight="33.333333"
       steps="2"
       helper_size="0"
       apply_no_weight="true"
       apply_with_weight="true"
       only_selected="false" />
    <inkscape:path-effect
       effect="bspline"
       id="path-effect3886"
       is_visible="true"
       weight="33.333333"
       steps="2"
       helper_size="0"
       apply_no_weight="true"
       apply_with_weight="true"
       only_selected="false" />
    <inkscape:path-effect
       effect="bspline"
       id="path-effect3890"
       is_visible="true"
       weight="33.333333"
       steps="2"
       helper_size="0"
       apply_no_weight="true"
       apply_with_weight="true"
       only_selected="false" />
    <inkscape:path-effect
       effect="bspline"
       id="path-effect3894"
       is_visible="true"
       weight="33.333333"
       steps="2"
       helper_size="0"
       apply_no_weight="true"
       apply_with_weight="true"
       only_selected="false" />
    <inkscape:path-effect
       effect="bspline"
       id="path-effect3898"
       is_visible="true"
       weight="33.333333"
       steps="2"
       helper_size="0"
       apply_no_weight="true"
       apply_with_weight="true"
       only_selected="false" />
    <inkscape:path-effect
       effect="bspline"
       id="path-effect3902"
       is_visible="true"
       weight="33.333333"
       steps="2"
       helper_size="0"
       apply_no_weight="true"
       apply_with_weight="true"
       only_selected="false" />
    <inkscape:path-effect
       effect="bspline"
       id="path-effect3906"
       is_visible="true"
       weight="33.333333"
       steps="2"
       helper_size="0"
       apply_no_weight="true"
       apply_with_weight="true"
       only_selected="false" />
    <inkscape:path-effect
       effect="bspline"
       id="path-effect3910"
       is_visible="true"
       weight="33.333333"
       steps="2"
       helper_size="0"
       apply_no_weight="true"
       apply_with_weight="true"
       only_selected="false" />
  </defs>
  <sodipodi:namedview
     id="base"
     pagecolor="#ffffff"
     bordercolor="#666666"
     borderopacity="1.0"
     inkscape:pageopacity="0.0"
     inkscape:pageshadow="2"
     inkscape:zoom="0.35"
     inkscape:cx="2074.6183"
     inkscape:cy="93.08214"
     inkscape:document-units="mm"
     inkscape:current-layer="layer1"
     showgrid="false"
     fit-margin-top="0"
     fit-margin-left="0"
     fit-margin-right="0"
     fit-margin-bottom="0"
     inkscape:window-width="1920"
     inkscape:window-height="1017"
     inkscape:window-x="-8"
     inkscape:window-y="-8"
     inkscape:window-maximized="1" />
  <metadata
     id="metadata4935">
    <rdf:RDF>
      <cc:Work
         rdf:about="">
        <dc:format>image/svg+xml</dc:format>
        <dc:type
           rdf:resource="http://purl.org/dc/dcmitype/StillImage" />
        <dc:title></dc:title>
      </cc:Work>
    </rdf:RDF>
  </metadata>
  <g
     inkscape:label="Layer 1"
     inkscape:groupmode="layer"
     id="layer1"
     transform="translate(594.26657,238.65179)">
    <g
       transform="matrix(0.26458333,0,0,0.26458333,-260.21358,-53.82663)"
       id="g4872">
      <path
         inkscape:transform-center-y="-3.0715315"
         inkscape:transform-center-x="0.027677291"
         d="m -1169.6886,-290.12913 -19.1075,-14.10708 -19.0293,14.21237 7.512,-22.53166 -19.3971,-13.70611 23.7502,0.18174 7.0413,-22.68321 7.1663,22.64398 23.7489,-0.31288 -19.3212,13.81301 z"
         inkscape:randomized="0"
         inkscape:rounded="0"
         inkscape:flatsided="false"
         sodipodi:arg2="1.5680355"
         sodipodi:arg1="0.93971694"
         sodipodi:r2="12.08577"
         sodipodi:r1="32.441273"
         sodipodi:cy="-316.32193"
         sodipodi:cx="-1188.8295"
         sodipodi:sides="5"
         id="path3696-4"
         style="fill:#ffcc00;stroke:#ffcc00"
         sodipodi:type="star" />
      <path
         inkscape:original-d="m -1261.8919,-510.85379 c 0.2384,118.01167 0.4759,236.02435 0.7123,354.03803 10e-4,21.60713 10e-4,43.21491 0,64.823863 1.4551,9.77261 2.909,19.5453 4.3619,29.31946 5.3744,15.61526 10.7468,31.22887 16.1187,46.84481 8.9002,14.2712499 17.7987,28.54243 26.6965,42.81514 7.053,8.05848 13.769,16.11765 20.652,24.17797 10.0753,9.06583 20.1493,18.13247 30.2225,27.20021 10.5788,7.55457 21.1567,15.11023 31.7335,22.666837 8.5639,4.36439 17.1271,8.72994 25.6891,13.0964 8.5637,3.5248 17.1271,7.05091 25.6891,10.57786 10.4104,3.02107 20.8209,6.04349 31.2299,9.06674 8.0598,3.18895 16.1196,6.3793 24.178,9.57045 6.3808,3.52472 12.7616,7.0509 19.1409,10.57786 4.0304,2.5174 8.06033,5.37188 12.08893,8.05932 0.6726,0.33478 1.3443,0.67061 2.0149,1.00741 2.1824,2.68384 4.3664,5.37188 6.5482,8.05933 0.3368,0.1669 0.6726,0.3348 1.0074,0.5037 0.5041,0.83752 1.0084,1.67803 1.5111,2.51854 1.6806,-2.01654 3.3591,-4.03066 5.0371,-6.04449 2.3504,-2.01475 4.7023,-4.03066 7.0519,-6.04449 4.7001,-3.35752 9.4035,-6.7171 14.1038,-10.07415 4.1976,-2.51893 8.3961,-5.03808 12.5927,-7.55562 5.0367,-2.35098 10.0751,-4.70227 15.1112,-7.05191 8.89773,-2.68679 17.79873,-5.37388 26.69653,-8.05932 11.4169,-3.86224 22.8358,-7.72451 34.2521,-11.58527 6.0449,-3.19082 12.09,-6.71711 18.1335,-10.07416 6.8837,-3.52626 13.769,-7.0529 20.652,-10.577857 5.5409,-3.52634 11.0826,-7.0529 16.6224,-10.57786 3.5262,-2.68687 7.0529,-5.37388 10.5778,-8.05932 4.3651,-4.70078 8.732,-9.40354 13.0964,-14.10381 10.073,-9.90507 20.1493,-19.8135 30.2225,-29.71875 7.2201,-8.56317 14.4406,-17.12706 21.6594,-25.6890901 3.69442,-7.38778 7.38874,-14.77642 11.0816,-22.1631399 2.687,-6.38026 5.37388,-12.76159 8.05932,-19.14089 2.35119,-8.56241 4.70227,-17.12706 7.0519,-25.68909 0.8404,-3.52646 1.68003,-7.0529 2.51854,-10.57786 1.00808,-7.21841 2.01583,-14.44061 3.02225,-21.65942 0.50463,-12.759623 1.00841,-25.522193 1.51112,-38.281783 0.33678,-32.90723 0.67261,-65.8188 1.00742,-98.7267 -0.1669,-16.11915 -0.33481,-85.9671 -0.50371,-128.94915 10e-4,-52.04958 10e-4,-104.10058 0,-156.14937 -0.6706,0.3348 -1.34222,0.67061 -2.01483,1.00742 -4.37227,1.84923 -8.72993,3.69286 -13.0964,5.54078 -7.8926,2.01439 -15.78184,4.02866 -23.67421,6.04449 -9.9068,2.01414 -19.8115,4.02867 -29.7188,6.0445 -9.2347,1.00653 -18.4683,2.01383 -27.7039,3.02224 -9.5706,-0.67269 -19.1399,-1.34422 -28.7114,-2.01483 -5.3724,-0.16892 -11.0805,-0.3368 -16.6223,-0.50371 -3.1897,-0.50479 -6.7151,-1.00841 -10.0742,-1.51112 -5.5411,-1.5125 -11.0805,-3.02324 -16.6223,-4.53337 -9.7385,-4.19907 -19.4757,-8.39612 -29.2151,-12.59269 -6.8833,-4.03086 -13.767,-8.39613 -20.652,-12.59269 -6.54743,-4.53456 -13.09543,-9.06774 -19.64463,-13.6001 -6.2116,-5.03824 -12.4237,-10.07516 -18.6371,-15.11123 -4.5325,-4.03074 -9.0658,-8.06033 -13.6001,-12.08899 -2.8534,-3.35909 -5.7077,-6.7171 -8.5631,-10.07415 -2.3496,2.18168 -4.7003,4.36447 -7.0519,6.5482 -4.8703,4.70234 -10.0731,9.40154 -15.11123,14.10381 -6.7165,5.54092 -13.4312,11.08057 -20.1483,16.62236 -7.3879,5.20482 -14.7744,10.40895 -22.1632,15.61493 -5.3727,3.18964 -10.7447,6.3793 -16.1186,9.57045 -4.3654,2.35015 -8.7299,4.70027 -13.0964,7.0519 -7.2208,2.68618 -14.4386,5.37188 -21.6594,8.05933 -4.7011,1.34244 -9.7374,2.68544 -14.6075,4.02966 -4.5335,-0.001 -9.0658,-0.001 -13.6002,0 -6.7165,-0.001 -13.4312,-0.001 -20.1483,0 -5.5406,-0.001 -11.0805,-0.001 -16.6223,0 -4.5332,0.33486 -9.0657,0.67061 -13.6001,1.00741 -6.5488,-0.67277 -13.0954,-1.34422 -19.6446,-2.01483 -5.0368,-0.84063 -10.0732,-1.68002 -15.1112,-2.51854 -8.2276,-1.68029 -16.4535,-3.35905 -24.6817,-5.03707 -4.0291,-1.34435 -8.0583,-2.68744 -12.089,-4.02966 -4.3651,-1.84821 -8.7299,-3.69486 -13.0964,-5.54079 -0.8386,-0.16892 -1.678,-0.3368 -2.5185,-0.50371 0.1566,0.54269 0.312,1.08538 0.4665,1.62957 z"
         inkscape:path-effect="#path-effect3812-0"
         inkscape:connector-curvature="0"
         id="path3810"
         d="m -1261.851,-452.11988 c 0.1965,59.27776 0.434,177.29044 0.5527,247.10085 0.1187,69.8104 0.1187,91.41818 0.8457,107.10905 0.7269,15.69087 2.1808,25.46356 5.5944,38.158395 3.4137,12.694835 8.7861,28.308432 15.9222,43.252192 7.136,14.9437592 16.0345,29.214939 23.9614,40.422071 7.927,11.207132 14.74,19.183399 23.2192,27.746549 8.4792,8.56315 18.5533,17.629761 28.8793,25.940972 10.3261,8.311211 20.904,15.866871 30.4744,21.827399 9.5705,5.960532 18.1337,10.326082 26.6966,14.271712 8.5629,3.94564 17.1263,7.47175 26.6126,10.74575 9.4863,3.274 19.8968,6.2964 29.1311,9.40251 9.2343,3.10611 17.2941,6.29644 24.5136,9.65437 7.2196,3.35792 13.6003,6.88413 18.7664,9.96441 5.166,3.08027 9.27345,5.81854 11.62414,7.32967 2.35069,1.51113 3.02238,1.84696 4.44865,3.35711 1.42627,1.51015 3.61029,4.19818 4.86981,5.62552 1.25953,1.42735 1.59533,1.59525 2.01449,2.09821 0.41917,0.50296 0.92346,1.34347 2.01566,0.75507 1.0922,-0.5884 2.77066,-2.60255 4.78495,-4.61675 2.01429,-2.01421 4.36619,-4.03012 7.89108,-6.71573 3.52489,-2.68561 8.2283,-6.04519 12.67725,-8.98314 4.44896,-2.93796 8.64749,-5.45707 13.26414,-7.89127 4.61666,-2.43421 9.65507,-4.78547 16.62197,-7.3036 6.96691,-2.51812 15.86791,-5.20521 26.02526,-8.47908 10.15735,-3.27386 21.57625,-7.13614 30.27121,-10.7262 8.69496,-3.59005 14.81134,-6.98804 21.27494,-10.42968 6.4636,-3.44164 13.34891,-6.96827 19.56083,-10.493992 6.21193,-3.525725 11.75364,-7.052261 16.28662,-10.158231 4.53297,-3.10597 8.05966,-5.792989 12.00459,-9.486189 3.94492,-3.693199 8.3118,-8.395984 15.53052,-15.698628 7.21873,-7.302644 17.29507,-17.211032 25.94166,-26.445299 8.64658,-9.234268 15.8671,-17.798145 21.32355,-25.7731157 5.45644,-7.9749704 9.15077,-15.3636064 12.34066,-22.2470973 3.18989,-6.883491 5.87677,-13.264823 8.39499,-20.735667 2.51822,-7.470844 4.8693,-16.035494 6.46429,-22.079732 1.595,-6.044239 2.43462,-9.570679 3.35786,-14.942336 0.92324,-5.371657 1.93099,-12.593857 2.68645,-22.583034 0.75547,-9.989179 1.25925,-22.751749 1.67898,-45.585139 0.41973,-22.8334 0.75556,-55.74497 0.89198,-80.25869 0.13641,-24.51373 -0.13643,-94.36127 -0.22038,-141.87708 -0.0839,-47.51582 -0.0839,-99.56682 -0.41915,-125.42361 -0.3352,-25.8568 -1.00682,-25.52099 -3.52926,-24.42792 -2.52243,1.09306 -6.8801,2.93668 -13.00964,4.86795 -6.12955,1.93126 -14.01879,3.94554 -22.91839,5.96055 -8.89959,2.01502 -18.8043,4.02954 -28.37533,5.54078 -9.57102,1.51124 -18.80462,2.51854 -28.20781,2.68649 -9.40318,0.16796 -18.97248,-0.50357 -26.44449,-0.92081 -7.47201,-0.41725 -13.17995,-0.59022 -17.54762,-0.9137 -4.36766,-0.32348 -7.88937,-0.85173 -12.33955,-1.8593 -4.45018,-1.00757 -9.98957,-2.51832 -17.62983,-5.37291 -7.64025,-2.85458 -17.37744,-7.05164 -25.65158,-11.22656 -8.27413,-4.17493 -15.23246,-8.41781 -21.94872,-12.78338 -6.71626,-4.36556 -13.26424,-8.89877 -19.64468,-13.6841 -6.38044,-4.78533 -12.59257,-9.82222 -17.96553,-14.35566 -5.37296,-4.53345 -9.90625,-8.56305 -13.60018,-12.25698 -3.69393,-3.69393 -6.54825,-7.05192 -9.15018,-7.64005 -2.60193,-0.58812 -4.95263,1.59467 -8.60269,4.9958 -3.65007,3.40113 -8.77468,8.1841 -14.65192,13.30575 -5.8773,5.12165 -12.592,10.66129 -19.6445,16.03463 -7.0525,5.37334 -14.439,10.57746 -20.8197,14.77534 -6.3807,4.19787 -11.7527,7.38752 -16.6224,10.1582 -4.8696,2.77068 -9.2341,5.12079 -15.0278,7.6398 -5.7936,2.51902 -13.0114,5.20472 -18.9783,7.1982 -5.9669,1.99349 -10.9913,3.37954 -15.6932,4.05131 -4.7019,0.67176 -9.2342,0.67176 -14.8596,0.67176 -5.6255,0 -12.3402,0 -18.469,0 -6.1289,0 -11.6688,0 -16.7063,0.16789 -5.0374,0.1679 -9.5699,0.50364 -15.1116,0.33574 -5.5417,-0.1679 -12.0883,-0.83935 -17.8814,-1.59495 -5.793,-0.7556 -10.8294,-1.595 -17.4622,-2.85439 -6.6328,-1.2594 -14.8587,-2.93815 -20.9875,-4.44932 -6.1287,-1.51116 -10.1579,-2.85423 -14.3559,-4.44944 -4.1979,-1.59521 -8.5627,-3.44186 -11.1651,-4.44932 -2.6024,-1.00746 -3.4418,-1.17534 -3.7842,-0.98786 -0.3424,0.18748 -0.1871,0.73018 0.01,60.00794 z"
         style="fill:none;stroke:#ffcc00;stroke-width:1px;stroke-linecap:butt;stroke-linejoin:miter;stroke-opacity:1" />
      <path
         inkscape:original-d="m -1242.3387,-482.24852 c 10e-4,126.55988 10e-4,253.12076 0,379.68264 3.0879,16.858085 5.6998,33.716904 8.5482,50.576857 4.9877,12.109533 9.9739,24.218905 14.9594,36.329858 13.2987,18.2834128 26.5954,36.566308 39.8916,54.850962 9.7365,7.834928 19.4719,15.670703 29.2063,23.507555 13.2981,8.784546 26.5954,17.570304 39.8917,26.356956 9.7362,5.222808 19.4719,10.446802 29.2063,15.671702 9.2612,3.32318 18.5221,6.6476 27.7817,9.9729 10.2107,4.03541 20.4217,8.07231 30.631,12.10996 8.0739,4.27288 16.1476,8.5472 24.21993,12.8223 4.03746,2.84827 8.0743,5.6978 12.10995,8.5482 1.66307,1.42363 2.8504,2.8484 4.2741,4.2741 5.6998,-4.2751 11.3986,-8.5492 17.09641,-12.8223 8.78492,-5.22388 17.5723,-10.4488 26.35695,-15.6717 10.20998,-3.7997 20.42171,-7.12451 30.63106,-10.68526 8.31077,-3.08748 16.6225,-6.1747 24.93225,-9.26055 10.68471,-4.986727 21.37151,-9.973901 32.05576,-14.959352 9.49793,-5.461736 18.997,-10.923702 28.49401,-16.384054 9.97266,-9.022977 19.9468,-18.047204 29.9187,-27.069306 9.26058,-10.447705 18.52211,-20.896604 27.78166,-31.343407 5.22437,-8.3109114 10.4488,-16.6225034 15.6717,-24.932255 4.51192,-6.886085 9.02411,-13.773103 13.53466,-20.658155 1.66287,-6.173663 3.3253,-12.348403 4.98645,-18.521104 2.37504,-8.310159 4.75,-16.622504 7.1235,-24.932256 0.47583,-3.799657 0.9508,-7.599401 1.4247,-11.397602 0.001,-132.222119 0.001,-264.520359 0,-396.779039"
         inkscape:path-effect="#path-effect3836"
         inkscape:connector-curvature="0"
         id="path3834"
         d="m -1242.3387,-482.24852 c 0,126.55988 0,253.12076 1.4279,324.85035 1.428,71.729589 4.2708,88.549386 8.1888,103.034281 3.918,14.484894 8.9042,26.594256 18.0464,41.791595 9.1421,15.1973388 22.4388,33.480259 33.9552,46.54018 11.5165,13.059921 21.2519,20.895726 32.7682,29.206453 11.5163,8.310728 24.8137,17.096442 36.33,24.101194 11.5163,7.004751 21.252,12.228783 30.7499,16.502817 9.4979,4.27403 18.7588,7.59845 28.4939,11.27881 9.7351,3.68036 19.9461,7.71728 29.0876,11.87253 9.1416,4.15526 17.2153,8.42957 23.2701,11.99123 6.05479,3.56166 10.09163,6.41119 12.88153,8.60749 2.7899,2.19631 4.09595,3.50236 7.65826,2.07724 3.56231,-1.42512 9.26111,-5.69922 16.50251,-10.44764 7.24139,-4.74841 16.02877,-9.97334 25.56301,-14.37867 9.53425,-4.40532 19.67214,-7.9418 28.9322,-11.26593 9.26006,-3.32413 17.5718,-6.41135 27.06902,-10.44769 9.49723,-4.036352 20.18403,-9.023525 30.27511,-14.247176 10.09108,-5.223651 19.59016,-10.685616 29.32492,-17.927416 9.73477,-7.2418 19.70891,-16.266026 29.32509,-26.000983 9.61619,-9.734958 18.87771,-20.183859 26.11957,-29.562771 7.24187,-9.3789109 12.46629,-17.6905037 17.33372,-25.2884174 4.86742,-7.5979136 9.37961,-14.4849336 12.4661,-21.0143026 3.08649,-6.529369 4.74892,-12.704109 6.76703,-19.945541 2.0181,-7.241432 4.39306,-15.553779 5.81763,-21.608443 1.42456,-6.054663 1.89953,-9.854408 2.13691,-77.86451 0.23738,-68.01011 0.23738,-200.30835 0.23738,-332.56703"
         style="fill:none;stroke:#ffcc00;stroke-width:1px;stroke-linecap:butt;stroke-linejoin:miter;stroke-opacity:1" />
      <path
         sodipodi:nodetypes="ccccccccccc"
         inkscape:original-d="m -721.61071,-482.96087 c -4.51055,0.23645 -9.0221,0.4739 -13.53465,0.71235 -7.12416,0.94902 -14.24601,1.8986 -21.37051,2.8494 -6.41115,0.47398 -12.8213,0.9488 -19.23345,1.4247 -6.8862,0.71147 -13.77111,1.4237 -20.65816,2.13705 -5.93619,0.47398 -11.87075,0.94874 -17.80875,1.4247 -4.7486,0.47396 -9.49392,0.94849 -14.247,1.4247 -5.9391,-0.71381 -11.87055,-1.42558 -17.80876,-2.13705 -6.1737,-1.18844 -12.34542,-2.37531 -18.5211,-3.56175 -9.26103,-2.37588 -18.51965,-4.74988 -27.78166,-7.1235 -6.41046,-3.56292 -12.8213,-7.1245 -19.23345,-10.68525 -8.31019,-5.22518 -16.62051,-10.4488 -24.93226,-15.67171 -8.54747,-6.1749 -17.0954,-12.3484 -25.6446,-18.5211 -4.51065,-4.98756 -9.02211,-9.9739 -13.53466,-14.95935 -1.42368,-0.95079 -2.8484,-1.9006 -4.2741,-2.8494 -4.98626,4.0363 -10.4468,8.0723 -15.6717,12.10995 -10.21148,7.83652 -20.41968,15.6707 -30.63108,23.50755 -11.3978,7.12328 -22.7942,14.24601 -34.1928,21.37051 -7.5982,2.84869 -15.1958,5.6978 -22.7952,8.5482 -9.4985,1.8989 -18.995,3.7982 -28.494,5.6988 -12.8229,0.71144 -25.6436,1.4237 -38.4669,2.13705 -14.2472,-0.71341 -28.493,-1.4257 -42.741,-2.13705 -12.5847,-2.13819 -25.1687,-4.2751 -37.7546,-6.41115 -3.7984,0.47393 -7.5974,0.9488 -11.3976,1.4247"
         inkscape:path-effect="#path-effect3842"
         inkscape:connector-curvature="0"
         id="path3840"
         d="m -721.61071,-482.96087 c -4.5105,0.23739 -9.02205,0.47484 -14.84037,1.06853 -5.81833,0.59369 -12.94018,1.54327 -19.70802,2.25569 -6.76785,0.71242 -13.178,1.18725 -19.82717,1.78092 -6.64916,0.59367 -13.53407,1.3059 -19.9457,1.89957 -6.41163,0.59368 -12.34619,1.06844 -17.68948,1.54339 -5.34329,0.47495 -10.08861,0.94948 -15.43481,0.83079 -5.3462,-0.1187 -11.27765,-0.83047 -17.33365,-1.7804 -6.056,-0.94993 -12.22772,-2.1368 -19.94612,-3.91795 -7.71839,-1.78114 -16.97701,-4.15514 -24.81343,-7.12341 -7.83641,-2.96826 -14.24725,-6.52984 -21.60846,-10.92282 -7.3612,-4.39297 -15.67152,-9.6166 -24.10117,-15.31552 -8.42966,-5.69891 -16.97759,-11.87242 -23.50763,-17.45264 -6.53004,-5.58022 -11.0415,-10.56656 -14.00947,-13.53458 -2.96798,-2.96801 -4.3927,-3.91783 -7.64263,-2.43203 -3.24994,1.48579 -8.62169,5.63669 -16.33989,11.57377 -7.71819,5.93707 -17.92639,13.77126 -28.73099,21.25138 -10.8045,7.48013 -22.2009,14.60288 -31.6993,19.58962 -9.4984,4.98674 -17.096,7.83584 -25.645,10.2106 -8.5489,2.37476 -18.0454,4.27406 -29.2064,5.58016 -11.161,1.30611 -23.9817,2.01837 -37.5171,2.01839 -13.5353,3e-5 -27.7811,-0.71226 -41.1975,-2.13699 -13.4164,-1.42472 -26.0004,-3.56163 -34.1924,-4.39283 -8.192,-0.8312 -11.991,-0.35633 -15.7913,0.11871"
         style="fill:none;stroke:#ffcc00;stroke-width:1px;stroke-linecap:butt;stroke-linejoin:miter;stroke-opacity:1" />
      <path
         inkscape:original-d="m -1194.7945,18.533642 c 10e-4,-86.772114 10e-4,-173.543232 0,-260.313342"
         inkscape:path-effect="#path-effect3866"
         inkscape:connector-curvature="0"
         id="path3864"
         d="m -1194.7945,18.533642 c 0,-86.772114 0,-173.543232 0,-260.313342"
         style="fill:none;stroke:#ffcc00;stroke-width:1px;stroke-linecap:butt;stroke-linejoin:miter;stroke-opacity:1" />
      <path
         inkscape:original-d="m -1132.3347,74.096955 c 0,-105.293219 0,-210.585435 0,-315.876655"
         inkscape:path-effect="#path-effect3870"
         inkscape:connector-curvature="0"
         id="path3868"
         d="m -1132.3347,74.096955 c 0,-105.293219 0,-210.585435 0,-315.876655"
         style="fill:none;stroke:#ffcc00;stroke-width:1px;stroke-linecap:butt;stroke-linejoin:miter;stroke-opacity:1" />
      <path
         inkscape:original-d="m -1077.9343,105.44036 c 10e-4,-0.71335 10e-4,-1.4257 0,-2.13705 10e-4,-114.867189 10e-4,-230.05634 0,-345.08301"
         inkscape:path-effect="#path-effect3874"
         inkscape:connector-curvature="0"
         id="path3872"
         d="m -1077.9343,105.44036 c 0,-0.71335 0,-1.4257 0,-59.214969 0,-57.78927 0,-172.978421 0,-288.005091"
         style="fill:none;stroke:#ffcc00;stroke-width:1px;stroke-linecap:butt;stroke-linejoin:miter;stroke-opacity:1" />
      <path
         inkscape:original-d="m -1009.4301,134.64672 c 0,-125.4764746 0,-250.95195 0,-376.42642"
         inkscape:path-effect="#path-effect3878"
         inkscape:connector-curvature="0"
         id="path3876"
         d="m -1009.4301,134.64672 c 0,-125.4764746 0,-250.95195 0,-376.42642"
         style="fill:none;stroke:#ffcc00;stroke-width:1px;stroke-linecap:butt;stroke-linejoin:miter;stroke-opacity:1" />
      <path
         inkscape:original-d="m -957.04449,135.35907 c 10e-4,-125.7139245 10e-4,-251.42685 0,-377.13877"
         inkscape:path-effect="#path-effect3882"
         inkscape:connector-curvature="0"
         id="path3880"
         d="m -957.04449,135.35907 c 0,-125.7139245 0,-251.42685 0,-377.13877"
         style="fill:none;stroke:#ffcc00;stroke-width:1px;stroke-linecap:butt;stroke-linejoin:miter;stroke-opacity:1" />
      <path
         inkscape:original-d="m -892.56992,-241.7797 c 10e-4,116.21392 10e-4,232.4288413 0,348.64476"
         inkscape:path-effect="#path-effect3886"
         inkscape:connector-curvature="0"
         id="path3884"
         d="m -892.56992,-241.7797 c 0,116.21392 0,232.4288413 0,348.64476"
         style="fill:none;stroke:#ffcc00;stroke-width:1px;stroke-linecap:butt;stroke-linejoin:miter;stroke-opacity:1" />
      <path
         inkscape:original-d="m -840.18432,82.645157 c 10e-4,-108.142619 10e-4,-216.284237 0,-324.424857"
         inkscape:path-effect="#path-effect3890"
         inkscape:connector-curvature="0"
         id="path3888"
         d="m -840.18432,82.645157 c 0,-108.142619 0,-216.284237 0,-324.424857"
         style="fill:none;stroke:#ffcc00;stroke-width:1px;stroke-linecap:butt;stroke-linejoin:miter;stroke-opacity:1" />
      <path
         inkscape:original-d="m -771.68009,-241.7797 c 10e-4,87.48246 10e-4,174.965929 0,262.450393"
         inkscape:path-effect="#path-effect3894"
         inkscape:connector-curvature="0"
         id="path3892"
         d="m -771.68009,-241.7797 c 0,87.48246 0,174.965929 0,262.450393"
         style="fill:none;stroke:#ffcc00;stroke-width:1px;stroke-linecap:butt;stroke-linejoin:miter;stroke-opacity:1" />
      <path
         inkscape:original-d="m -1194.7945,-241.7797 c 20.8209,-0.001 41.6409,-0.001 62.4598,0"
         inkscape:path-effect="#path-effect3898"
         inkscape:connector-curvature="0"
         id="path3896"
         d="m -1194.7945,-241.7797 c 20.8209,0 41.6409,0 62.4598,0"
         style="fill:none;stroke:#ffcc00;stroke-width:1px;stroke-linecap:butt;stroke-linejoin:miter;stroke-opacity:1" />
      <path
         inkscape:original-d="m -1077.9343,-241.7797 c 22.8357,-0.001 45.6705,-0.001 68.5042,0"
         inkscape:path-effect="#path-effect3902"
         inkscape:connector-curvature="0"
         id="path3900"
         d="m -1077.9343,-241.7797 c 22.8357,0 45.6705,0 68.5042,0"
         style="fill:none;stroke:#ffcc00;stroke-width:1px;stroke-linecap:butt;stroke-linejoin:miter;stroke-opacity:1" />
      <path
         inkscape:original-d="m -957.04449,-241.7797 c 21.49252,-0.001 42.98405,-0.001 64.47457,0"
         inkscape:path-effect="#path-effect3906"
         inkscape:connector-curvature="0"
         id="path3904"
         d="m -957.04449,-241.7797 c 21.49252,0 42.98405,0 64.47457,0"
         style="fill:none;stroke:#ffcc00;stroke-width:1px;stroke-linecap:butt;stroke-linejoin:miter;stroke-opacity:1" />
      <path
         inkscape:original-d="m -840.18432,-241.7797 c 22.83574,-0.001 45.67049,-0.001 68.50423,0"
         inkscape:path-effect="#path-effect3910"
         inkscape:connector-curvature="0"
         id="path3908"
         d="m -840.18432,-241.7797 c 22.83574,0 45.67049,0 68.50423,0"
         style="fill:none;stroke:#ffcc00;stroke-width:1px;stroke-linecap:butt;stroke-linejoin:miter;stroke-opacity:1" />
      <path
         inkscape:transform-center-y="-3.0715315"
         inkscape:transform-center-x="0.027677291"
         d="m -1093.4031,-289.95103 -19.1075,-14.10708 -19.0293,14.21237 7.5121,-22.53166 -19.3972,-13.70611 23.7503,0.18174 7.0412,-22.68321 7.1664,22.64398 23.7488,-0.31288 -19.3211,13.81301 z"
         inkscape:randomized="0"
         inkscape:rounded="0"
         inkscape:flatsided="false"
         sodipodi:arg2="1.5680355"
         sodipodi:arg1="0.93971694"
         sodipodi:r2="12.08577"
         sodipodi:r1="32.441273"
         sodipodi:cy="-316.14383"
         sodipodi:cx="-1112.5439"
         sodipodi:sides="5"
         id="path3696-4-6"
         style="fill:#ffcc00;stroke:#ffcc00"
         sodipodi:type="star" />
      <path
         inkscape:transform-center-y="-3.0715315"
         inkscape:transform-center-x="0.027677291"
         d="m -1011.7416,-289.77293 -19.1075,-14.10708 -19.0293,14.21237 7.5121,-22.53166 -19.3972,-13.70611 23.7502,0.18174 7.0413,-22.68321 7.1664,22.64398 23.7488,-0.31288 -19.3211,13.81301 z"
         inkscape:randomized="0"
         inkscape:rounded="0"
         inkscape:flatsided="false"
         sodipodi:arg2="1.5680355"
         sodipodi:arg1="0.93971694"
         sodipodi:r2="12.08577"
         sodipodi:r1="32.441273"
         sodipodi:cy="-315.96573"
         sodipodi:cx="-1030.8824"
         sodipodi:sides="5"
         id="path3696-4-4"
         style="fill:#ffcc00;stroke:#ffcc00"
         sodipodi:type="star" />
      <path
         inkscape:transform-center-y="-3.0715315"
         inkscape:transform-center-x="0.027677291"
         d="m -922.79386,-289.66768 -19.10753,-14.10707 -19.02933,14.21236 7.51207,-22.53166 -19.39715,-13.70611 23.75024,0.18174 7.04124,-22.6832 7.16638,22.64398 23.74888,-0.31288 -19.32118,13.81301 z"
         inkscape:randomized="0"
         inkscape:rounded="0"
         inkscape:flatsided="false"
         sodipodi:arg2="1.5680355"
         sodipodi:arg1="0.93971694"
         sodipodi:r2="12.08577"
         sodipodi:r1="32.441273"
         sodipodi:cy="-315.86047"
         sodipodi:cx="-941.93475"
         sodipodi:sides="5"
         id="path3696-4-1"
         style="fill:#ffcc00;stroke:#ffcc00"
         sodipodi:type="star" />
      <path
         inkscape:transform-center-y="-3.0715315"
         inkscape:transform-center-x="0.027677291"
         d="m -837.48387,-289.84575 -19.10752,-14.10707 -19.02933,14.21236 7.51207,-22.53166 -19.39715,-13.70611 23.75024,0.18174 7.04124,-22.6832 7.16638,22.64398 23.74887,-0.31288 -19.32117,13.81301 z"
         inkscape:randomized="0"
         inkscape:rounded="0"
         inkscape:flatsided="false"
         sodipodi:arg2="1.5680355"
         sodipodi:arg1="0.93971694"
         sodipodi:r2="12.08577"
         sodipodi:r1="32.441273"
         sodipodi:cy="-316.03854"
         sodipodi:cx="-856.62476"
         sodipodi:sides="5"
         id="path3696-4-3"
         style="fill:#ffcc00;stroke:#ffcc00"
         sodipodi:type="star" />
      <path
         inkscape:transform-center-y="-3.0715315"
         inkscape:transform-center-x="0.027677291"
         d="m -758.30278,-289.69276 -19.10752,-14.10708 -19.02933,14.21237 7.51207,-22.53166 -19.39715,-13.70611 23.75024,0.18174 7.04124,-22.68321 7.16638,22.64398 23.74887,-0.31288 -19.32117,13.81301 z"
         inkscape:randomized="0"
         inkscape:rounded="0"
         inkscape:flatsided="false"
         sodipodi:arg2="1.5680355"
         sodipodi:arg1="0.93971694"
         sodipodi:r2="12.08577"
         sodipodi:r1="32.441273"
         sodipodi:cy="-315.88556"
         sodipodi:cx="-777.44366"
         sodipodi:sides="5"
         id="path3696-4-47"
         style="fill:#ffcc00;stroke:#ffcc00"
         sodipodi:type="star" />
      <path
         inkscape:transform-center-y="-3.0715315"
         inkscape:transform-center-x="0.027677291"
         d="m -1052.7505,-362.37965 -19.1075,-14.10708 -19.0293,14.21237 7.512,-22.53166 -19.3971,-13.70611 23.7502,0.18174 7.0413,-22.68321 7.1664,22.64398 23.7488,-0.31288 -19.3211,13.81301 z"
         inkscape:randomized="0"
         inkscape:rounded="0"
         inkscape:flatsided="false"
         sodipodi:arg2="1.5680355"
         sodipodi:arg1="0.93971694"
         sodipodi:r2="12.08577"
         sodipodi:r1="32.441273"
         sodipodi:cy="-388.57245"
         sodipodi:cx="-1071.8914"
         sodipodi:sides="5"
         id="path3696-4-47-9"
         style="fill:#ffcc00;stroke:#ffcc00"
         sodipodi:type="star" />
      <path
         inkscape:transform-center-y="-3.0715315"
         inkscape:transform-center-x="0.027677291"
         d="m -1137.4902,-362.55775 -19.1075,-14.10708 -19.0294,14.21237 7.5121,-22.53166 -19.3971,-13.70611 23.7502,0.18174 7.0412,-22.68321 7.1664,22.64398 23.7489,-0.31288 -19.3212,13.81301 z"
         inkscape:randomized="0"
         inkscape:rounded="0"
         inkscape:flatsided="false"
         sodipodi:arg2="1.5680355"
         sodipodi:arg1="0.93971694"
         sodipodi:r2="12.08577"
         sodipodi:r1="32.441273"
         sodipodi:cy="-388.75055"
         sodipodi:cx="-1156.6311"
         sodipodi:sides="5"
         id="path3696-4-47-7"
         style="fill:#ffcc00;stroke:#ffcc00"
         sodipodi:type="star" />
      <path
         inkscape:transform-center-y="-3.0715315"
         inkscape:transform-center-x="0.027677291"
         d="m -796.05027,-362.62627 -19.10753,-14.10707 -19.02933,14.21236 7.51207,-22.53165 -19.39715,-13.70612 23.75024,0.18175 7.04124,-22.68321 7.16638,22.64398 23.74888,-0.31288 -19.32118,13.81301 z"
         inkscape:randomized="0"
         inkscape:rounded="0"
         inkscape:flatsided="false"
         sodipodi:arg2="1.5680355"
         sodipodi:arg1="0.93971694"
         sodipodi:r2="12.08577"
         sodipodi:r1="32.441273"
         sodipodi:cy="-388.81906"
         sodipodi:cx="-815.19116"
         sodipodi:sides="5"
         id="path3696-4-47-6"
         style="fill:#ffcc00;stroke:#ffcc00"
         sodipodi:type="star" />
      <path
         inkscape:transform-center-y="-3.0715315"
         inkscape:transform-center-x="0.027677291"
         d="m -881.63737,-362.37965 -19.10752,-14.10708 -19.02934,14.21237 7.51208,-22.53166 -19.39715,-13.70611 23.75024,0.18174 7.04124,-22.68321 7.16638,22.64398 23.74887,-0.31288 -19.32117,13.81301 z"
         inkscape:randomized="0"
         inkscape:rounded="0"
         inkscape:flatsided="false"
         sodipodi:arg2="1.5680355"
         sodipodi:arg1="0.93971694"
         sodipodi:r2="12.08577"
         sodipodi:r1="32.441273"
         sodipodi:cy="-388.57245"
         sodipodi:cx="-900.77826"
         sodipodi:sides="5"
         id="path3696-4-47-5"
         style="fill:#ffcc00;stroke:#ffcc00"
         sodipodi:type="star" />
      <path
         inkscape:transform-center-y="-3.0715315"
         inkscape:transform-center-x="0.027677291"
         d="m -964.92723,-362.66304 -19.10752,-14.10707 -19.02935,14.21236 7.51209,-22.53166 -19.39719,-13.70611 23.75028,0.18174 7.04124,-22.6832 7.16638,22.64398 23.74887,-0.31288 -19.32117,13.81301 z"
         inkscape:randomized="0"
         inkscape:rounded="0"
         inkscape:flatsided="false"
         sodipodi:arg2="1.5680355"
         sodipodi:arg1="0.93971694"
         sodipodi:r2="12.08577"
         sodipodi:r1="32.441273"
         sodipodi:cy="-388.85583"
         sodipodi:cx="-984.06812"
         sodipodi:sides="5"
         id="path3696-4-47-66"
         style="fill:#ffcc00;stroke:#ffcc00"
         sodipodi:type="star" />
      <path
         inkscape:connector-curvature="0"
         id="path3990"
         d="m -1145.4529,63.502721 c -17.1394,-12.251639 -26.4352,-20.73174 -38.1345,-34.788403 l -10.5554,-12.682098 v -128.16895 -128.16894 h 30.6311 30.6311 v 156.004681 c 0,85.8025763 -0.2474,156.004684 -0.5498,156.004684 -0.3024,0 -5.7125,-3.690444 -12.0225,-8.200974 z"
         style="fill:#ffcc00;stroke:#ffcc00;stroke-width:1.42470026" />
      <path
         inkscape:connector-curvature="0"
         id="path3992"
         d="m -1017.4799,128.67752 c -2.7426,-1.50929 -17.3279,-7.64416 -32.4119,-13.63306 l -27.4255,-10.88891 V -68.075063 -240.30567 h 33.4804 33.4805 v 185.923387 c 0,102.257866 -0.4809,185.896523 -1.0685,185.863673 -0.5877,-0.0329 -3.3125,-1.29459 -6.055,-2.80387 z"
         style="fill:#ffcc00;stroke:#ffcc00;stroke-width:1.42470026" />
      <path
         inkscape:connector-curvature="0"
         id="path3994"
         d="M -956.2178,-53.669933 V -240.30567 h 31.3434 31.34341 V -66.738082 106.82951 l -21.17367,7.88188 c -11.64552,4.33504 -25.56879,10.2157 -30.94061,13.06815 -5.37182,2.85245 -9.9482,5.18627 -10.16974,5.18627 -0.22153,0 -0.40279,-83.986085 -0.40279,-186.635743 z"
         style="fill:#ffcc00;stroke:#ffcc00;stroke-width:1.42470026" />
      <path
         inkscape:connector-curvature="0"
         id="path3996"
         d="M -839.39238,-80.026888 V -240.30567 h 33.48046 33.48046 v 130.84472 130.844729 l -11.36437,12.441195 c -6.2504,6.842665 -16.34797,16.973566 -22.43903,22.513129 -10.9051,9.917724 -29.6082,23.913794 -31.95625,23.913794 -0.6607,0 -1.20127,-72.1254533 -1.20127,-160.278785 z"
         style="fill:#ffcc00;stroke:#ffcc00;stroke-width:1.42470026" />
      <path
         inkscape:connector-curvature="0"
         id="path3998"
         d="m -987.6379,166.30477 c -11.72665,-12.24778 -36.5568,-24.70723 -75.2395,-37.75422 -52.4861,-17.70264 -77.1148,-31.843749 -117.617,-67.532107 -39.5244,-34.826828 -72.3585,-96.277842 -77.6461,-145.319432 -0.776,-7.196475 -1.8222,-103.719561 -2.3847,-219.993761 -0.9827,-203.14088 -0.9496,-207.14927 1.7029,-206.03188 10.7819,4.54208 28.2893,9.76292 44.0214,13.12755 17.9746,3.84425 19.8242,3.96179 62.6868,3.98388 l 44.1657,0.0228 12.11,-4.07823 c 16.3726,-5.51377 27.6354,-10.7337 42.4265,-19.66331 15.9453,-9.62645 41.7098,-29.15217 57.82743,-43.82478 6.94919,-6.32615 12.91042,-11.5021 13.24719,-11.5021 0.33678,0 6.83225,5.54854 14.43441,12.33009 37.21476,33.19762 75.02563,55.56402 109.56127,64.80913 9.74597,2.60897 15.49581,2.99848 46.73088,3.16569 29.38315,0.15729 37.86188,-0.26419 48.43981,-2.40793 19.34197,-3.91988 44.90466,-10.45507 51.08703,-13.06058 3.02313,-1.27408 5.90815,-1.90506 6.41115,-1.40219 1.58706,1.58669 1.86425,363.77318 0.30386,397.04677 -0.94962,20.249695 -2.45732,35.8736 -4.36525,45.235989 -6.31943,31.009928 -18.82712,60.9902811 -33.90119,81.259564 -12.9477,17.410066 -61.75816,65.89702 -74.68283,74.187849 -24.35615,15.623818 -50.55663,27.866768 -83.0487,38.806958 -17.23887,5.80438 -35.51066,12.64893 -40.60396,15.21011 -11.75524,5.91114 -27.83839,16.96957 -34.14797,23.47942 -2.68284,2.76798 -5.26748,5.0327 -5.74364,5.0327 -0.47616,0 -3.07513,-2.30758 -5.77549,-5.12795 z m 21.79136,-23.94634 c 18.91914,-12.30991 28.739,-17.07869 55.9315,-27.1618 32.2213,-11.94782 70.23926,-30.460403 86.79713,-42.265299 14.82878,-10.572131 40.16449,-35.225445 53.9705,-52.516847 10.5983,-13.2738902 29.81252,-42.749971 33.92036,-52.036424 1.43001,-3.232773 5.01822,-13.843614 7.97379,-23.579617 l 5.37376,-17.70183 0.40118,-205.513023 0.40119,-205.51302 h -3.98786 c -2.19333,0 -9.09996,0.63159 -15.34808,1.40353 -25.69818,3.17494 -73.52393,7.12122 -86.44086,7.13255 -21.19186,0.0186 -56.78497,-7.78187 -73.08821,-16.01777 -20.08278,-10.14519 -52.45821,-32.7308 -67.16525,-46.85554 -5.59747,-5.37585 -11.13884,-9.77428 -12.31416,-9.77428 -1.17531,0 -12.90525,7.94929 -26.06655,17.66508 -42.2938,31.22177 -61.2942,41.64905 -86.7886,47.62892 -29.1951,6.84789 -71.8357,7.47205 -116.1131,1.69964 -26.6627,-3.476 -33.9898,-3.64422 -35.0791,-0.80537 -1.3029,3.39513 2.2189,367.49243 3.742,386.866428 3.3205,42.238504 10.5914,63.094279 34.13,97.8989237 22.6092,33.4302933 38.7848,49.3136653 74.141,72.8016593 26.708,17.742847 45.5622,27.400859 79.7832,40.868769 28.9291,11.38525 50.3194,21.89095 61.26209,30.08843 7.88597,5.90761 9.21431,5.67437 24.56407,-4.31311 z"
         style="fill:#ffcc00;stroke:#ffcc00;stroke-width:1.42470026" />
      <path
         inkscape:connector-curvature="0"
         id="path4000"
         d="m -988.98591,144.89334 c -2.74255,-1.98244 -8.35231,-5.53833 -12.46609,-7.90198 l -7.4797,-4.29755 V -55.230635 -243.15507 h -34.9052 -34.9051 v 173.101084 c 0,95.205599 -0.4809,173.088776 -1.0686,173.073746 -2.1715,-0.0556 -27.6386,-14.179057 -39.4503,-21.878308 l -12.195,-7.949144 V -84.981383 -243.15507 h -32.0558 -32.0558 v 128.49883 128.498838 l -6.9481,-9.892535 c -18.2023,-25.915598 -29.3065,-51.947594 -32.7827,-76.85345 -3.536,-25.334947 -4.5378,-68.927983 -5.394,-234.719373 l -0.8957,-173.45727 8.4071,0.0168 c 4.6239,0.009 18.6263,1.29146 31.1163,2.8494 27.6531,3.44927 71.3333,3.79842 92.6915,0.7409 36.42,-5.21366 55.4515,-14.43149 103.4711,-50.11572 13.02827,-9.68159 24.82065,-17.60288 26.20526,-17.60288 1.38461,0 7.71464,4.98029 14.06673,11.06731 13.21911,12.66747 45.06396,34.45194 64.1208,43.86382 14.67255,7.24654 38.37442,13.72976 60.07165,16.43151 12.839,1.59873 18.06295,1.39492 56.1838,-2.19197 23.11576,-2.17502 46.71647,-4.28998 52.44603,-4.6999 l 10.41737,-0.74531 -0.45196,202.1443 -0.45194,202.144292 -5.47849,19.233455 c -3.01317,10.578399 -6.99086,22.43903 -8.83932,26.356955 -3.65632,7.749786 -20.47616,34.0677336 -28.43091,44.485741 l -4.96378,6.500864 v -131.277297 -131.2773 h -34.89912 -34.89913 l -0.3622,162.772007 -0.36222,162.772011 -9.9729,5.294813 c -9.30724,4.941388 -38.39643,18.212739 -39.92013,18.212739 -0.37611,0 -0.68383,-78.536602 -0.68383,-174.525786 V -243.15507 h -32.76811 -32.7681 V -54.353518 134.44804 l -10.86806,7.09474 c -5.97741,3.90211 -11.90773,7.06329 -13.17848,7.02487 -1.27073,-0.0385 -4.55432,-1.69186 -7.29687,-3.67431 z m -207.83739,-441.87487 8.0048,-5.82415 9.7186,6.9968 c 5.3452,3.84823 9.9159,6.79946 10.1571,6.55825 0.2412,-0.24118 -1.1629,-5.14685 -3.1202,-10.90148 -1.9572,-5.75463 -3.5587,-10.87546 -3.5587,-11.37962 0,-0.50417 4.3276,-4.07829 9.6168,-7.94249 l 9.6167,-7.02582 -12.4221,-0.411 -12.4222,-0.411 -3.0262,-10.27425 c -1.6645,-5.65085 -3.552,-10.82768 -4.1945,-11.50409 -0.6425,-0.6764 -2.6877,3.8114 -4.5448,9.9729 l -3.3767,11.20274 -12.7748,0.71235 -12.7749,0.71235 10.1038,7.12668 10.1039,7.12667 -3.3365,9.89107 c -3.8152,11.30991 -4.2283,14.65024 -1.5557,12.57862 0.9795,-0.75922 5.383,-4.00127 9.7856,-7.20453 z m 75.2382,1.24538 9.1584,-6.91848 9.5617,6.95457 c 5.2589,3.82502 9.9123,6.95458 10.3408,6.95458 0.4286,0 -1.0111,-5.29627 -3.1991,-11.76948 l -3.9784,-11.76947 10.1237,-7.10781 10.1236,-7.1078 -12.7074,-0.71235 -12.7074,-0.71235 -3.8639,-11.39761 c -4.3372,-12.79375 -4.2801,-12.81983 -9.2347,4.22341 l -2.2927,7.88655 h -12.0089 c -6.6049,0 -11.9936,0.48083 -11.9749,1.06852 0.019,0.58769 4.1859,3.89825 9.2605,7.35681 5.0747,3.45855 9.2267,6.71211 9.2267,7.23013 0,0.51802 -1.6028,5.65425 -3.5618,11.41384 -1.959,5.7596 -3.5617,10.68025 -3.5617,10.93479 0,1.44955 3.1292,-0.35891 11.2955,-6.52785 z m 81.5308,0.0306 9.194,-6.96001 9.5917,7.14538 c 5.2754,3.92995 9.914,6.82305 10.308,6.42908 0.3939,-0.39398 -0.9117,-5.04152 -2.9015,-10.3279 -1.9898,-5.28635 -3.6178,-10.39192 -3.6178,-11.34569 0,-0.95376 4.152,-4.56385 9.2266,-8.0224 5.0747,-3.45856 9.24193,-6.76912 9.26058,-7.35681 0.0187,-0.58769 -5.36288,-1.06852 -11.95908,-1.06852 h -11.9929 l -3.8259,-11.48796 c -2.1042,-6.31839 -4.1403,-11.17351 -4.5246,-10.78918 -0.3843,0.38434 -2.1307,5.39364 -3.8808,11.13179 l -3.1821,10.433 -12.3561,0.41164 c -6.7959,0.22641 -12.3358,0.86752 -12.311,1.4247 0.025,0.55718 4.1921,3.80826 9.2605,7.22464 5.0685,3.41636 9.2155,6.99049 9.2155,7.94249 0,0.952 -1.5646,6.33099 -3.4769,11.95335 -1.9123,5.62233 -2.9696,10.22244 -2.3495,10.22244 0.62,0 5.2646,-3.13201 10.3213,-6.96002 z m 88.71504,0.5109 c 4.64216,-3.50523 9.01838,-6.37317 9.72493,-6.37317 0.70657,0 5.12186,2.95267 9.81179,6.56147 4.68991,3.60881 8.8787,6.20987 9.30842,5.78016 0.42973,-0.42972 -0.88564,-5.73922 -2.92302,-11.79889 -2.03739,-6.05966 -3.55013,-11.10495 -3.36168,-11.21176 0.18848,-0.10686 4.83048,-3.35973 10.31558,-7.22872 l 9.9729,-7.03451 -12.98643,-0.4071 -12.98641,-0.40709 -3.39764,-11.33956 c -1.8687,-6.23675 -3.75889,-11.34277 -4.20043,-11.34668 -0.44155,-0.004 -2.27817,5.09871 -4.08139,11.33917 l -3.27856,11.3463 -13.01502,0.40748 -13.01504,0.40748 9.97291,7.03451 c 5.48509,3.86899 10.19907,7.19388 10.47552,7.38867 0.40748,0.28712 -3.71348,13.82025 -6.56231,21.5505 -1.14733,3.11321 1.5533,1.88035 10.22588,-4.66824 z m 84.87758,0.038 c 4.58247,-3.52613 9.07028,-6.41115 9.9729,-6.41115 0.90262,0 5.47833,2.95267 10.16826,6.56147 4.68991,3.60881 8.89994,6.18865 9.35562,5.73296 0.45567,-0.45568 -0.95528,-5.71936 -3.13547,-11.69706 -2.33665,-6.4067 -3.40732,-11.24599 -2.60804,-11.78793 0.74576,-0.50567 5.42344,-3.80441 10.39483,-7.33054 l 9.03888,-6.41115 -12.81025,-0.40653 -12.81025,-0.40654 -3.36286,-10.72289 c -1.84959,-5.89759 -3.80136,-10.99388 -4.33727,-11.3251 -0.53592,-0.33121 -2.44703,4.49418 -4.24691,10.72311 l -3.27251,11.32533 -12.90419,0.40631 -12.90419,0.40631 9.94985,7.00427 c 5.47241,3.85234 10.10874,7.10996 10.30296,7.23915 0.1942,0.12922 -1.24831,4.94323 -3.20558,10.69785 -5.26462,15.47861 -5.31544,15.4279 6.41422,6.40213 z m 79.88662,-0.46401 9.065,-6.87516 9.42288,6.87516 c 5.18259,3.78134 9.81321,6.87517 10.29028,6.87517 0.47706,0 -0.6972,-4.60011 -2.60948,-10.22244 -1.91229,-5.62236 -3.47688,-10.91908 -3.47688,-11.77051 0,-0.85141 4.32753,-4.7461 9.61673,-8.65482 l 9.61672,-7.10679 -12.71409,-0.71235 -12.71409,-0.71235 -3.18025,-10.433 c -1.74915,-5.73815 -3.51487,-10.7676 -3.92381,-11.17656 -0.40896,-0.40894 -2.32758,4.2859 -4.2636,10.43301 l -3.52007,11.17655 -12.25397,0.41164 c -6.73969,0.22641 -12.23872,0.86752 -12.22007,1.4247 0.0187,0.55718 4.1859,3.84278 9.26055,7.30134 5.07465,3.45855 9.22664,7.03267 9.22664,7.94248 0,0.90981 -1.56459,6.2543 -3.47688,11.87666 -1.91227,5.62233 -2.96696,10.22244 -2.34373,10.22244 0.62322,0 5.21238,-3.09383 10.19812,-6.87517 z m -379.17574,-72.77521 9.1584,-6.91849 9.5617,6.95457 c 5.2589,3.82503 9.9147,6.95458 10.3463,6.95458 0.4315,0 -0.78,-4.6001 -2.6923,-10.22244 -1.9122,-5.62235 -3.4768,-11.01555 -3.4768,-11.98489 0,-0.96935 4.3275,-4.86403 9.6167,-8.65484 l 9.6167,-6.89239 -12.7827,-0.71235 -12.7827,-0.71235 -3.4316,-11.13995 c -1.8874,-6.12696 -3.929,-10.61477 -4.537,-9.9729 -0.608,0.64188 -2.4746,5.81513 -4.148,11.49612 l -3.0426,10.32908 h -12.0496 c -6.6273,0 -12.0344,0.48084 -12.0157,1.06853 0.019,0.58768 4.1859,3.89825 9.2605,7.35681 5.0747,3.45854 9.2266,6.7121 9.2266,7.23012 0,0.51802 -1.6027,5.65425 -3.5617,11.41385 -1.959,5.75959 -3.5618,10.68025 -3.5618,10.93479 0,1.44954 3.1293,-0.35892 11.2956,-6.52785 z m 84.1594,0.57951 c 4.5824,-3.52614 8.8933,-6.41115 9.5796,-6.41115 0.6863,0 5.2804,2.93428 10.2091,6.52061 4.9287,3.58634 9.2181,6.26374 9.5321,5.94977 0.314,-0.31397 -1.1079,-5.56388 -3.1597,-11.66647 -2.1794,-6.48214 -3.1737,-11.47362 -2.3913,-12.00475 0.7367,-0.50001 5.4069,-3.79413 10.3783,-7.32027 l 9.0389,-6.41115 -13.0008,-0.40904 -13.0007,-0.40905 -3.0268,-10.27621 c -1.6648,-5.65191 -3.5067,-10.78383 -4.0933,-11.40427 -0.5865,-0.62043 -2.6104,4.02445 -4.4974,10.32195 l -3.431,11.45002 -12.8223,0.0522 -12.8223,0.0521 3.6791,3.16056 c 2.0234,1.7383 6.6443,5.21181 10.2686,7.71889 l 6.5897,4.55833 -3.5014,10.29439 c -5.1996,15.2874 -5.2418,15.24676 6.4716,6.23355 z m 88.32468,-0.65098 9.25384,-6.98996 4.28081,3.19262 c 2.35445,1.75595 6.58524,4.91767 9.40174,7.02606 2.81652,2.10837 5.50306,3.83341 5.97011,3.83341 0.46704,0 -0.71543,-4.6001 -2.6277,-10.22244 -1.91229,-5.62235 -3.47689,-11.01555 -3.47689,-11.98489 0,-0.96935 4.32753,-4.86403 9.61673,-8.65484 l 9.61673,-6.89239 -12.61202,-0.71235 -12.61202,-0.71235 -3.52958,-11.21265 c -1.94125,-6.16697 -3.99353,-10.65477 -4.56059,-9.97291 -0.56707,0.68187 -2.46832,5.8633 -4.22499,11.51431 l -3.19395,10.27455 -12.4015,0.4107 -12.4016,0.4107 9.6168,7.02582 c 5.2892,3.86421 9.61669,7.75888 9.61669,8.65485 0,0.89595 -1.56459,6.2291 -3.47689,11.85145 -1.9123,5.62234 -3.0342,10.2062 -2.4932,10.18635 0.541,-0.0198 5.14786,-3.18157 10.23748,-7.02604 z m 82.63933,0.65098 c 4.58247,-3.52614 9.07028,-6.41115 9.9729,-6.41115 0.90262,0 5.47833,2.95266 10.16826,6.56147 4.68991,3.60881 8.88467,6.2039 9.3217,5.76687 0.43702,-0.43703 -0.97589,-5.64895 -3.13983,-11.58207 -2.16393,-5.93312 -3.68265,-10.98605 -3.37494,-11.22875 0.3077,-0.24268 5.0369,-3.59316 10.50931,-7.44551 l 9.94985,-7.00427 -12.92039,-0.40652 -12.92038,-0.40654 -3.36286,-10.72289 c -1.84959,-5.89759 -3.80136,-10.99389 -4.33727,-11.32511 -0.53592,-0.33122 -2.44703,4.49418 -4.24691,10.72311 l -3.27251,11.32533 -12.91261,0.40631 -12.91261,0.40631 10.24207,7.44291 10.24208,7.44292 -3.48939,10.25921 c -5.18601,15.24751 -5.22637,15.20893 6.48353,6.19837 z m 85.48202,0 c 4.58247,-3.52614 9.18186,-6.39407 10.22085,-6.37319 1.03901,0.021 5.7261,2.93497 10.41576,6.47577 4.68967,3.54079 8.70472,5.90366 8.92233,5.2508 0.21762,-0.65284 -1.21805,-5.93153 -3.19038,-11.73038 -1.97232,-5.79888 -3.06253,-10.90356 -2.4227,-11.34375 0.63983,-0.44019 5.23084,-3.68537 10.20224,-7.21151 l 9.03888,-6.41115 -12.88184,-0.40748 -12.88184,-0.40748 -3.27857,-11.34629 c -1.80321,-6.24047 -3.71103,-11.3463 -4.23959,-11.3463 -0.52856,0 -2.41488,5.10595 -4.19181,11.34656 l -3.23079,11.34658 -12.99505,0.4072 -12.99505,0.40721 9.20584,6.41115 c 5.0632,3.52614 9.71414,6.77132 10.33541,7.21151 0.62127,0.44019 -0.47605,5.52112 -2.43851,11.29096 -5.27528,15.50999 -5.32748,15.45759 6.40482,6.42979 z"
         style="fill:#000000;stroke:#ffcc00;stroke-width:1.42470026" />
      <path
         transform="matrix(0.75074338,0.02824083,0,0.72832038,810.42113,-98.245738)"
         inkscape:transform-center-y="-4.7828564"
         inkscape:transform-center-x="0.63943438"
         d="m -2506.0478,-590.52576 -41.7142,-28.46235 -39.308,31.70261 14.1789,-48.46788 -42.2978,-27.58751 50.4772,-1.49244 13.1666,-48.75263 17.0177,47.5455 50.4352,-2.54327 -39.9597,30.87717 z"
         inkscape:randomized="0"
         inkscape:rounded="0"
         inkscape:flatsided="false"
         sodipodi:arg2="1.5308254"
         sodipodi:arg1="0.90250691"
         sodipodi:r2="25.696781"
         sodipodi:r1="68.976685"
         sodipodi:cy="-644.66437"
         sodipodi:cx="-2548.7888"
         sodipodi:sides="5"
         id="path4004-9"
         style="fill:#6c5353;stroke:#ff0000;stroke-width:7;stroke-miterlimit:4;stroke-dasharray:none"
         sodipodi:type="star" />
      <path
         transform="matrix(0.75074338,0.04236125,0,0.72832038,1050.1859,-59.935396)"
         inkscape:transform-center-y="-4.5364675"
         inkscape:transform-center-x="0.63943438"
         d="m -2506.0478,-590.52576 -41.7142,-28.46235 -39.308,31.70261 14.1789,-48.46788 -42.2978,-27.58751 50.4772,-1.49244 13.1666,-48.75263 17.0177,47.5455 50.4352,-2.54327 -39.9597,30.87717 z"
         inkscape:randomized="0"
         inkscape:rounded="0"
         inkscape:flatsided="false"
         sodipodi:arg2="1.5308254"
         sodipodi:arg1="0.90250691"
         sodipodi:r2="25.696781"
         sodipodi:r1="68.976685"
         sodipodi:cy="-644.66437"
         sodipodi:cx="-2548.7888"
         sodipodi:sides="5"
         id="path4004-8"
         style="fill:#6c5353;stroke:#ff0000;stroke-width:7;stroke-miterlimit:4;stroke-dasharray:none"
         sodipodi:type="star" />
    </g>
  </g>
</svg>
